<svg id="visual" viewBox="0 0 1253 2102" width="1253" height="2102" xmlns="http://www.w3.org/2000/svg" xmlns:xlink="http://www.w3.org/1999/xlink" version="1.1"><g stroke-width="1" stroke-linejoin="bevel"><path d="M720 1073L528 1074L710 1208.2Z" fill="#efefef" stroke="#efefef"></path><path d="M528 1074L506 1250.2L710 1208.2Z" fill="#fafafa" stroke="#fafafa"></path><path d="M383 901.8L374 1069L528 1074Z" fill="#f9f9f9" stroke="#f9f9f9"></path><path d="M528 1074L380 1228.2L506 1250.2Z" fill="#f2f2f2" stroke="#f2f2f2"></path><path d="M374 1069L380 1228.2L528 1074Z" fill="#fcfcfc" stroke="#fcfcfc"></path><path d="M720 1073L566 875.8L528 1074Z" fill="#f2f2f2" stroke="#f2f2f2"></path><path d="M686 1417.3L875 1250.2L710 1208.2Z" fill="#fafafa" stroke="#fafafa"></path><path d="M710 1208.2L875 1250.2L720 1073Z" fill="#fafafa" stroke="#fafafa"></path><path d="M720 1073L722 859.8L566 875.8Z" fill="#ffffff" stroke="#ffffff"></path><path d="M331 1390.3L523 1400.3L506 1250.2Z" fill="#fdfdfd" stroke="#fdfdfd"></path><path d="M506 1250.2L686 1417.3L710 1208.2Z" fill="#f5f5f5" stroke="#f5f5f5"></path><path d="M523 1400.3L686 1417.3L506 1250.2Z" fill="#fdfdfd" stroke="#fdfdfd"></path><path d="M873 874.8L722 859.8L720 1073Z" fill="#fafafa" stroke="#fafafa"></path><path d="M875 1250.2L925 1055L720 1073Z" fill="#ffffff" stroke="#ffffff"></path><path d="M566 875.8L383 901.8L528 1074Z" fill="#f1f1f1" stroke="#f1f1f1"></path><path d="M925 1055L873 874.8L720 1073Z" fill="#f4f4f4" stroke="#f4f4f4"></path><path d="M686 1417.3L885 1416.3L875 1250.2Z" fill="#ffffff" stroke="#ffffff"></path><path d="M1066 1245.2L1071 1075L925 1055Z" fill="#f5f5f5" stroke="#f5f5f5"></path><path d="M380 1228.2L331 1390.3L506 1250.2Z" fill="#f9f9f9" stroke="#f9f9f9"></path><path d="M523 1563.5L713 1562.5L686 1417.3Z" fill="#f1f1f1" stroke="#f1f1f1"></path><path d="M172 1228.2L331 1390.3L380 1228.2Z" fill="#fdfdfd" stroke="#fdfdfd"></path><path d="M172 1228.2L380 1228.2L374 1069Z" fill="#f2f2f2" stroke="#f2f2f2"></path><path d="M722 859.8L544 711.7L566 875.8Z" fill="#efefef" stroke="#efefef"></path><path d="M566 875.8L544 711.7L383 901.8Z" fill="#f7f7f7" stroke="#f7f7f7"></path><path d="M746 710.7L544 711.7L722 859.8Z" fill="#f5f5f5" stroke="#f5f5f5"></path><path d="M523 1563.5L686 1417.3L523 1400.3Z" fill="#f7f7f7" stroke="#f7f7f7"></path><path d="M686 1417.3L713 1562.5L885 1416.3Z" fill="#f2f2f2" stroke="#f2f2f2"></path><path d="M873 874.8L746 710.7L722 859.8Z" fill="#efefef" stroke="#efefef"></path><path d="M331 1390.3L523 1563.5L523 1400.3Z" fill="#f1f1f1" stroke="#f1f1f1"></path><path d="M1066 1245.2L925 1055L875 1250.2Z" fill="#f9f9f9" stroke="#f9f9f9"></path><path d="M925 1055L1097 897.8L873 874.8Z" fill="#efefef" stroke="#efefef"></path><path d="M873 874.8L916 677.7L746 710.7Z" fill="#f4f4f4" stroke="#f4f4f4"></path><path d="M1057 1385.3L1066 1245.2L875 1250.2Z" fill="#f4f4f4" stroke="#f4f4f4"></path><path d="M156 1029L172 1228.2L374 1069Z" fill="#efefef" stroke="#efefef"></path><path d="M199 876.8L374 1069L383 901.8Z" fill="#f9f9f9" stroke="#f9f9f9"></path><path d="M199 876.8L156 1029L374 1069Z" fill="#f2f2f2" stroke="#f2f2f2"></path><path d="M544 711.7L340 726.7L383 901.8Z" fill="#f1f1f1" stroke="#f1f1f1"></path><path d="M340 726.7L199 876.8L383 901.8Z" fill="#f7f7f7" stroke="#f7f7f7"></path><path d="M1061 1607.5L1057 1385.3L885 1416.3Z" fill="#fcfcfc" stroke="#fcfcfc"></path><path d="M885 1416.3L1057 1385.3L875 1250.2Z" fill="#efefef" stroke="#efefef"></path><path d="M1253 1047L1097 897.8L1071 1075Z" fill="#efefef" stroke="#efefef"></path><path d="M1071 1075L1097 897.8L925 1055Z" fill="#f9f9f9" stroke="#f9f9f9"></path><path d="M1253 1047L1071 1075L1253 1243.2Z" fill="#f7f7f7" stroke="#f7f7f7"></path><path d="M0 1391.3L165 1395.3L172 1228.2Z" fill="#efefef" stroke="#efefef"></path><path d="M172 1228.2L165 1395.3L331 1390.3Z" fill="#f1f1f1" stroke="#f1f1f1"></path><path d="M331 1390.3L328 1587.5L523 1563.5Z" fill="#f4f4f4" stroke="#f4f4f4"></path><path d="M1055 696.7L916 677.7L873 874.8Z" fill="#fcfcfc" stroke="#fcfcfc"></path><path d="M746 710.7L717 554.5L544 711.7Z" fill="#efefef" stroke="#efefef"></path><path d="M544 711.7L355 510.5L340 726.7Z" fill="#fdfdfd" stroke="#fdfdfd"></path><path d="M204 1587.5L328 1587.5L331 1390.3Z" fill="#f2f2f2" stroke="#f2f2f2"></path><path d="M711 1732.7L905 1606.5L713 1562.5Z" fill="#f4f4f4" stroke="#f4f4f4"></path><path d="M711 1732.7L713 1562.5L523 1563.5Z" fill="#f7f7f7" stroke="#f7f7f7"></path><path d="M713 1562.5L905 1606.5L885 1416.3Z" fill="#fafafa" stroke="#fafafa"></path><path d="M891 552.5L717 554.5L746 710.7Z" fill="#f5f5f5" stroke="#f5f5f5"></path><path d="M532 1760.7L711 1732.7L523 1563.5Z" fill="#f2f2f2" stroke="#f2f2f2"></path><path d="M1097 897.8L1055 696.7L873 874.8Z" fill="#f9f9f9" stroke="#f9f9f9"></path><path d="M916 677.7L891 552.5L746 710.7Z" fill="#fcfcfc" stroke="#fcfcfc"></path><path d="M165 1395.3L204 1587.5L331 1390.3Z" fill="#f2f2f2" stroke="#f2f2f2"></path><path d="M328 1587.5L532 1760.7L523 1563.5Z" fill="#f4f4f4" stroke="#f4f4f4"></path><path d="M0 865.8L0 1055L156 1029Z" fill="#fafafa" stroke="#fafafa"></path><path d="M156 1029L0 1055L172 1228.2Z" fill="#f1f1f1" stroke="#f1f1f1"></path><path d="M165 1395.3L0 1590.5L204 1587.5Z" fill="#f9f9f9" stroke="#f9f9f9"></path><path d="M0 865.8L156 1029L199 876.8Z" fill="#fdfdfd" stroke="#fdfdfd"></path><path d="M355 510.5L191 676.7L340 726.7Z" fill="#f9f9f9" stroke="#f9f9f9"></path><path d="M340 726.7L191 676.7L199 876.8Z" fill="#f1f1f1" stroke="#f1f1f1"></path><path d="M0 1055L0 1220.2L172 1228.2Z" fill="#f1f1f1" stroke="#f1f1f1"></path><path d="M327 1763.7L532 1760.7L328 1587.5Z" fill="#f7f7f7" stroke="#f7f7f7"></path><path d="M717 554.5L556 503.5L544 711.7Z" fill="#f7f7f7" stroke="#f7f7f7"></path><path d="M1253 1243.2L1071 1075L1066 1245.2Z" fill="#f2f2f2" stroke="#f2f2f2"></path><path d="M1097 897.8L1253 714.7L1055 696.7Z" fill="#ffffff" stroke="#ffffff"></path><path d="M1253 1398.3L1253 1243.2L1066 1245.2Z" fill="#f7f7f7" stroke="#f7f7f7"></path><path d="M1253 1398.3L1066 1245.2L1057 1385.3Z" fill="#f2f2f2" stroke="#f2f2f2"></path><path d="M1051 526.5L891 552.5L916 677.7Z" fill="#fafafa" stroke="#fafafa"></path><path d="M717 554.5L693 368.3L556 503.5Z" fill="#f9f9f9" stroke="#f9f9f9"></path><path d="M1076 1727.7L1061 1607.5L905 1606.5Z" fill="#fafafa" stroke="#fafafa"></path><path d="M905 1606.5L1061 1607.5L885 1416.3Z" fill="#fafafa" stroke="#fafafa"></path><path d="M1253 1047L1253 894.8L1097 897.8Z" fill="#fdfdfd" stroke="#fdfdfd"></path><path d="M0 1220.2L0 1391.3L172 1228.2Z" fill="#f2f2f2" stroke="#f2f2f2"></path><path d="M556 503.5L355 510.5L544 711.7Z" fill="#f9f9f9" stroke="#f9f9f9"></path><path d="M191 676.7L0 865.8L199 876.8Z" fill="#f7f7f7" stroke="#f7f7f7"></path><path d="M0 690.7L0 865.8L191 676.7Z" fill="#f2f2f2" stroke="#f2f2f2"></path><path d="M1253 1564.5L1253 1398.3L1057 1385.3Z" fill="#efefef" stroke="#efefef"></path><path d="M195 1780.7L327 1763.7L204 1587.5Z" fill="#fafafa" stroke="#fafafa"></path><path d="M204 1587.5L327 1763.7L328 1587.5Z" fill="#fcfcfc" stroke="#fcfcfc"></path><path d="M715 1913.8L893 1778.7L711 1732.7Z" fill="#fcfcfc" stroke="#fcfcfc"></path><path d="M711 1732.7L893 1778.7L905 1606.5Z" fill="#f4f4f4" stroke="#f4f4f4"></path><path d="M715 1913.8L711 1732.7L532 1760.7Z" fill="#f4f4f4" stroke="#f4f4f4"></path><path d="M1055 696.7L1051 526.5L916 677.7Z" fill="#ffffff" stroke="#ffffff"></path><path d="M891 552.5L693 368.3L717 554.5Z" fill="#f4f4f4" stroke="#f4f4f4"></path><path d="M1253 505.5L1051 526.5L1055 696.7Z" fill="#f1f1f1" stroke="#f1f1f1"></path><path d="M893 1778.7L1076 1727.7L905 1606.5Z" fill="#fafafa" stroke="#fafafa"></path><path d="M1061 1607.5L1253 1564.5L1057 1385.3Z" fill="#efefef" stroke="#efefef"></path><path d="M355 510.5L156 544.5L191 676.7Z" fill="#f1f1f1" stroke="#f1f1f1"></path><path d="M1253 894.8L1253 714.7L1097 897.8Z" fill="#f1f1f1" stroke="#f1f1f1"></path><path d="M1253 1742.7L1253 1564.5L1061 1607.5Z" fill="#f5f5f5" stroke="#f5f5f5"></path><path d="M156 544.5L0 690.7L191 676.7Z" fill="#f1f1f1" stroke="#f1f1f1"></path><path d="M922 371.3L693 368.3L891 552.5Z" fill="#f7f7f7" stroke="#f7f7f7"></path><path d="M556 503.5L379 331.3L355 510.5Z" fill="#f7f7f7" stroke="#f7f7f7"></path><path d="M355 510.5L170 369.3L156 544.5Z" fill="#f9f9f9" stroke="#f9f9f9"></path><path d="M0 1391.3L0 1590.5L165 1395.3Z" fill="#fdfdfd" stroke="#fdfdfd"></path><path d="M0 1765.7L195 1780.7L204 1587.5Z" fill="#ffffff" stroke="#ffffff"></path><path d="M541 1938.8L715 1913.8L532 1760.7Z" fill="#f4f4f4" stroke="#f4f4f4"></path><path d="M893 1778.7L1079 1938.8L1076 1727.7Z" fill="#f9f9f9" stroke="#f9f9f9"></path><path d="M541 1938.8L532 1760.7L374 1913.8Z" fill="#f1f1f1" stroke="#f1f1f1"></path><path d="M374 1913.8L532 1760.7L327 1763.7Z" fill="#fafafa" stroke="#fafafa"></path><path d="M693 368.3L533 329.3L556 503.5Z" fill="#f9f9f9" stroke="#f9f9f9"></path><path d="M1097 364.3L922 371.3L1051 526.5Z" fill="#fdfdfd" stroke="#fdfdfd"></path><path d="M1051 526.5L922 371.3L891 552.5Z" fill="#efefef" stroke="#efefef"></path><path d="M693 368.3L737 195.2L533 329.3Z" fill="#f5f5f5" stroke="#f5f5f5"></path><path d="M196 1904.8L374 1913.8L327 1763.7Z" fill="#f9f9f9" stroke="#f9f9f9"></path><path d="M533 329.3L379 331.3L556 503.5Z" fill="#f2f2f2" stroke="#f2f2f2"></path><path d="M156 544.5L0 522.5L0 690.7Z" fill="#ffffff" stroke="#ffffff"></path><path d="M870 2102L892 1937.8L715 1913.8Z" fill="#f4f4f4" stroke="#f4f4f4"></path><path d="M715 1913.8L892 1937.8L893 1778.7Z" fill="#fdfdfd" stroke="#fdfdfd"></path><path d="M1076 1727.7L1253 1742.7L1061 1607.5Z" fill="#f1f1f1" stroke="#f1f1f1"></path><path d="M170 369.3L0 522.5L156 544.5Z" fill="#f4f4f4" stroke="#f4f4f4"></path><path d="M1079 1938.8L1253 1742.7L1076 1727.7Z" fill="#fafafa" stroke="#fafafa"></path><path d="M0 1765.7L196 1904.8L195 1780.7Z" fill="#f1f1f1" stroke="#f1f1f1"></path><path d="M195 1780.7L196 1904.8L327 1763.7Z" fill="#f4f4f4" stroke="#f4f4f4"></path><path d="M353 2102L561 2102L541 1938.8Z" fill="#f2f2f2" stroke="#f2f2f2"></path><path d="M0 1590.5L0 1765.7L204 1587.5Z" fill="#f1f1f1" stroke="#f1f1f1"></path><path d="M1253 714.7L1253 505.5L1055 696.7Z" fill="#ffffff" stroke="#ffffff"></path><path d="M379 331.3L170 369.3L355 510.5Z" fill="#ffffff" stroke="#ffffff"></path><path d="M1253 505.5L1097 364.3L1051 526.5Z" fill="#efefef" stroke="#efefef"></path><path d="M922 371.3L737 195.2L693 368.3Z" fill="#f2f2f2" stroke="#f2f2f2"></path><path d="M1064 2102L1079 1938.8L892 1937.8Z" fill="#fcfcfc" stroke="#fcfcfc"></path><path d="M892 1937.8L1079 1938.8L893 1778.7Z" fill="#f9f9f9" stroke="#f9f9f9"></path><path d="M906 171.2L737 195.2L922 371.3Z" fill="#fafafa" stroke="#fafafa"></path><path d="M533 329.3L380 178.2L379 331.3Z" fill="#fafafa" stroke="#fafafa"></path><path d="M379 331.3L186 182.2L170 369.3Z" fill="#ffffff" stroke="#ffffff"></path><path d="M737 195.2L548 174.2L533 329.3Z" fill="#f1f1f1" stroke="#f1f1f1"></path><path d="M353 2102L541 1938.8L374 1913.8Z" fill="#f5f5f5" stroke="#f5f5f5"></path><path d="M541 1938.8L705 2102L715 1913.8Z" fill="#ffffff" stroke="#ffffff"></path><path d="M561 2102L705 2102L541 1938.8Z" fill="#efefef" stroke="#efefef"></path><path d="M548 174.2L380 178.2L533 329.3Z" fill="#f9f9f9" stroke="#f9f9f9"></path><path d="M170 369.3L0 320.3L0 522.5Z" fill="#f5f5f5" stroke="#f5f5f5"></path><path d="M705 2102L870 2102L715 1913.8Z" fill="#f9f9f9" stroke="#f9f9f9"></path><path d="M1093 170.2L906 171.2L922 371.3Z" fill="#f5f5f5" stroke="#f5f5f5"></path><path d="M737 195.2L711 0L548 174.2Z" fill="#f7f7f7" stroke="#f7f7f7"></path><path d="M1093 170.2L922 371.3L1097 364.3Z" fill="#f4f4f4" stroke="#f4f4f4"></path><path d="M159 2102L353 2102L196 1904.8Z" fill="#fafafa" stroke="#fafafa"></path><path d="M196 1904.8L353 2102L374 1913.8Z" fill="#f1f1f1" stroke="#f1f1f1"></path><path d="M0 1765.7L0 1933.8L196 1904.8Z" fill="#ffffff" stroke="#ffffff"></path><path d="M1253 505.5L1253 332.3L1097 364.3Z" fill="#f2f2f2" stroke="#f2f2f2"></path><path d="M1253 2102L1253 1938.8L1079 1938.8Z" fill="#ffffff" stroke="#ffffff"></path><path d="M1079 1938.8L1253 1938.8L1253 1742.7Z" fill="#fdfdfd" stroke="#fdfdfd"></path><path d="M186 182.2L0 320.3L170 369.3Z" fill="#f1f1f1" stroke="#f1f1f1"></path><path d="M380 178.2L186 182.2L379 331.3Z" fill="#fdfdfd" stroke="#fdfdfd"></path><path d="M384 0L186 182.2L380 178.2Z" fill="#efefef" stroke="#efefef"></path><path d="M870 2102L1064 2102L892 1937.8Z" fill="#f9f9f9" stroke="#f9f9f9"></path><path d="M1253 332.3L1093 170.2L1097 364.3Z" fill="#f9f9f9" stroke="#f9f9f9"></path><path d="M0 1933.8L159 2102L196 1904.8Z" fill="#f2f2f2" stroke="#f2f2f2"></path><path d="M186 182.2L0 194.2L0 320.3Z" fill="#fafafa" stroke="#fafafa"></path><path d="M865 0L711 0L737 195.2Z" fill="#fcfcfc" stroke="#fcfcfc"></path><path d="M548 174.2L510 0L380 178.2Z" fill="#fafafa" stroke="#fafafa"></path><path d="M186 182.2L165 0L0 194.2Z" fill="#f4f4f4" stroke="#f4f4f4"></path><path d="M865 0L737 195.2L906 171.2Z" fill="#f9f9f9" stroke="#f9f9f9"></path><path d="M711 0L510 0L548 174.2Z" fill="#efefef" stroke="#efefef"></path><path d="M0 1933.8L0 2102L159 2102Z" fill="#efefef" stroke="#efefef"></path><path d="M1064 2102L1253 2102L1079 1938.8Z" fill="#f1f1f1" stroke="#f1f1f1"></path><path d="M510 0L384 0L380 178.2Z" fill="#f4f4f4" stroke="#f4f4f4"></path><path d="M1103 0L865 0L906 171.2Z" fill="#fcfcfc" stroke="#fcfcfc"></path><path d="M1253 332.3L1253 158.2L1093 170.2Z" fill="#f7f7f7" stroke="#f7f7f7"></path><path d="M1093 170.2L1103 0L906 171.2Z" fill="#fcfcfc" stroke="#fcfcfc"></path><path d="M384 0L165 0L186 182.2Z" fill="#f5f5f5" stroke="#f5f5f5"></path><path d="M1253 158.2L1103 0L1093 170.2Z" fill="#fdfdfd" stroke="#fdfdfd"></path><path d="M165 0L0 0L0 194.2Z" fill="#fafafa" stroke="#fafafa"></path><path d="M1253 158.2L1253 0L1103 0Z" fill="#f4f4f4" stroke="#f4f4f4"></path></g></svg>